<svg width="67.842773" height="66.000000" viewBox="0 0 67.8428 66" fill="none" xmlns="http://www.w3.org/2000/svg" xmlns:xlink="http://www.w3.org/1999/xlink">
	<desc>
			Created with Pixso.
	</desc>
	<defs/>
	<path id="Vector" d="M56.35 41.47C56.56 40.91 56.81 40.2 57.06 39.14L50.99 39.14C48.41 46.62 41.33 52.04 32.98 52.04C22.51 52.04 13.96 43.54 13.96 33.02C13.96 22.5 22.51 14 32.98 14C41.33 14 48.41 19.42 50.99 26.85L57.06 26.85C56.81 25.89 56.56 25.13 56.35 24.52L63.74 20.23C62.12 17.6 59.19 15.98 56.1 15.98C54.23 15.98 53.01 16.53 51.95 16.94C50.69 15.47 50.28 15.17 48.97 13.95L53.27 6.57C51.95 5.86 50.49 5.51 49.02 5.51C46.18 5.51 43.55 6.72 41.43 9.6C40.11 9.15 39.46 8.95 37.33 8.49L37.33 0C33.13 0.1 29.19 3.08 28.58 8.54C26.76 8.9 26.3 9.05 24.48 9.6L20.28 2.22C16.69 4.45 14.77 8.95 16.99 14C15.58 15.27 15.12 15.72 14.01 16.99L6.62 12.69C4.6 16.38 5.21 21.24 9.66 24.52C9.05 26.34 8.9 26.95 8.6 28.62L0 28.62C0.1 32.82 3.08 36.76 8.54 37.37C8.9 39.19 9.1 39.9 9.61 41.47L2.22 45.71C3.84 48.34 6.77 49.96 9.86 49.96C11.68 49.96 12.85 49.51 13.96 49C15.22 50.42 15.73 50.92 16.94 51.99L12.69 59.37C14.01 60.08 15.48 60.43 16.94 60.43C19.88 60.43 22.41 59.17 24.53 56.34C26.4 56.94 26.96 57.09 28.63 57.45L28.63 66C32.88 65.89 36.78 62.91 37.38 57.45C39.2 57.09 39.91 56.89 41.48 56.34L45.78 63.72C49.32 61.54 51.29 57.04 49.07 51.94C50.59 50.57 50.94 50.22 52.05 48.95L59.44 53.25C61.41 49.56 60.81 44.7 56.35 41.47Z" fill="#FFFFFF" fill-opacity="1.000000" fill-rule="nonzero"/>
	<path id="Vector" d="M33.03 15.52C23.37 15.52 15.53 23.36 15.53 33.02C15.53 42.68 23.37 50.52 33.03 50.52C40.52 50.52 46.94 45.82 49.42 39.14L44.87 39.14C42.64 43.44 38.14 46.37 33.03 46.37C25.64 46.37 19.67 40.4 19.67 33.02C19.67 25.64 25.64 19.67 33.03 19.67C38.19 19.67 42.64 22.6 44.87 26.9L49.42 26.9C46.89 20.22 40.47 15.52 33.03 15.52Z" fill="#FFFFFF" fill-opacity="1.000000" fill-rule="nonzero"/>
	<path id="Vector" d="M28.88 28.87L37.74 28.87L37.74 37.12L28.88 37.12L28.88 28.87Z" fill="#FFFFFF" fill-opacity="1.000000" fill-rule="evenodd"/>
	<path id="Vector" d="M38.5 37.12C44.06 37.12 44.41 37.12 48.01 37.12L48.01 28.87C41.99 28.87 43.66 28.87 38.5 28.87L38.5 37.12Z" fill="#FFFFFF" fill-opacity="1.000000" fill-rule="nonzero"/>
	<path id="Vector" d="M58.23 37.12L58.23 28.87C54.63 28.87 52.16 28.87 48.71 28.87L48.71 37.07C54.53 37.12 45.22 37.12 58.23 37.12Z" fill="#FFFFFF" fill-opacity="1.000000" fill-rule="nonzero"/>
	<path id="Vector" d="M59.04 28.87L58.98 28.87L58.98 37.12L59.04 37.12L67.84 37.12L67.84 28.87L59.04 28.87Z" fill="#FFFFFF" fill-opacity="1.000000" fill-rule="nonzero"/>
</svg>
