<svg width="97.606445" height="47.489014" viewBox="0 0 97.6064 47.489" fill="none" xmlns="http://www.w3.org/2000/svg" xmlns:xlink="http://www.w3.org/1999/xlink">
	<desc>
			Created with Pixso.
	</desc>
	<defs/>
	<path id="Vector" d="M87.43 6.68L81.49 6.68C80.69 2.68 78.46 0 75.71 0L21.42 0C17.94 0 15.31 4.4 15.31 10.22C15.31 12.62 15.77 14.8 16.51 16.51L2.97 30.11C1.02 32.05 0 34.57 0 37.31C0 42.91 4.57 47.48 10.17 47.48L67.03 47.48C69.31 47.48 71.54 46.74 73.31 45.31L73.37 45.31L94.63 24.05C96.57 22.11 97.6 19.6 97.6 16.85C97.6 11.25 93.03 6.68 87.43 6.68ZM86.63 10.11L80.91 15.82C81.49 14.22 81.83 12.34 81.83 10.22L81.83 10.11L86.63 10.11ZM75.71 2.85C77.26 2.85 78.97 5.88 78.97 10.22L78.97 10.28C78.97 14.62 77.26 17.6 75.71 17.6C74.17 17.6 72.46 14.51 72.46 10.22L72.46 10.11C72.46 5.82 74.17 2.85 75.71 2.85ZM10.17 40.51C8.34 40.51 6.97 39.03 6.97 37.31C6.97 35.54 8.4 34.11 10.17 34.11C11.94 34.11 13.37 35.54 13.37 37.31C13.37 39.08 11.94 40.51 10.17 40.51ZM10.17 28.85C9.77 28.85 9.37 28.85 9.02 28.91L18.57 19.37C19.42 20.11 20.4 20.51 21.42 20.51L24.28 20.51L15.94 28.85L10.17 28.85ZM17.14 28.85L25.48 20.51L32.91 20.51L24.57 28.85L17.14 28.85ZM25.77 28.85L34.11 20.51L41.54 20.51L33.25 28.85L25.77 28.85ZM34.46 28.85L42.8 20.51L50.23 20.51L41.88 28.85L34.46 28.85ZM43.14 28.85L51.48 20.51L58.91 20.51L50.57 28.85L43.14 28.85ZM51.77 28.85L60.11 20.51L67.54 20.51L59.2 28.85L51.77 28.85ZM68.8 20.51L75.71 20.51C75.94 20.51 76.12 20.51 76.29 20.45L67.83 28.91C67.54 28.85 67.26 28.85 67.03 28.85L60.46 28.85L68.8 20.51ZM67.03 40.51C65.26 40.51 63.83 39.08 63.83 37.31C63.83 35.54 65.26 34.11 67.03 34.11C68.8 34.11 70.23 35.54 70.23 37.31C70.23 39.08 68.8 40.51 67.03 40.51ZM68.91 29.08C71.66 26.34 85.14 12.85 87.83 10.17C89.83 10.28 91.6 11.25 92.74 12.68L73.54 31.88C72.34 30.51 70.74 29.48 68.91 29.08ZM92.23 21.65L75.43 38.51C75.49 38.11 75.49 37.77 75.49 37.37C75.49 35.6 74.97 34 74.06 32.68L93.26 13.48C93.89 14.51 94.23 15.71 94.23 16.97C94.17 18.68 93.49 20.34 92.23 21.65Z" fill="#FFFFFF" fill-opacity="1.000000" fill-rule="nonzero"/>
</svg>
