<svg width="67.249023" height="56.000000" viewBox="0 0 67.249 56" fill="none" xmlns="http://www.w3.org/2000/svg" xmlns:xlink="http://www.w3.org/1999/xlink">
	<desc>
			Created with Pixso.
	</desc>
	<defs/>
	<path id="Vector" d="M62.2 39.94L33.81 39.94C31.31 40.53 30.32 45.17 30.32 47.97C30.32 52.39 32.02 55.59 33.81 56L62.2 56C65.08 56 67.24 52.52 67.24 47.97C67.24 43.42 65.08 39.94 62.2 39.94ZM62.2 53.74C60.88 53.74 59.51 51.31 59.51 47.97C59.51 44.59 60.92 42.2 62.2 42.2C63.47 42.2 64.89 44.59 64.89 47.97C64.89 51.4 63.47 53.74 62.2 53.74Z" fill="#FFFFFF" fill-opacity="1.000000" fill-rule="nonzero"/>
	<path id="Vector" d="M28.91 47.97C28.91 44.05 30.13 41.3 31.36 39.94L5.04 39.94C2.16 39.94 0 43.42 0 47.97C0 52.57 2.16 56 5.04 56L31.4 56C30.18 54.64 28.91 51.94 28.91 47.97Z" fill="#FFFFFF" fill-opacity="1.000000" fill-rule="nonzero"/>
	<path id="Vector" d="M25.09 6.58L25.09 5.05L22.26 5.05L22.26 6.58C22.26 8.07 22.26 10.14 20.84 11.36C18.86 13.07 18.06 15.91 18.96 18.17C19.8 20.24 21.79 21.41 24.52 21.41L27.54 21.41L27.54 18.71L24.52 18.71C23.48 18.71 22.12 18.44 21.6 17.22C21.12 16 21.6 14.33 22.73 13.39C25.09 11.36 25.09 8.34 25.09 6.58Z" fill="#FFFFFF" fill-opacity="1.000000" fill-rule="nonzero"/>
	<path id="Vector" d="M32.2 30.84L35.03 30.84L35.03 38.55L32.2 38.55L32.2 30.84Z" fill="#FFFFFF" fill-opacity="1.000000" fill-rule="evenodd"/>
	<path id="Vector" d="M14.57 0L47.25 0L47.25 3.65L14.57 3.65L14.57 0Z" fill="#FFFFFF" fill-opacity="1.000000" fill-rule="evenodd"/>
	<path id="Vector" d="M36.26 25.47L38.29 23.53L38.29 5.05L28.9 5.05C28.9 13.3 28.9 17.4 28.9 23.53L30.93 25.47L30.93 29.48L36.26 29.48L36.26 25.47Z" fill="#FFFFFF" fill-opacity="1.000000" fill-rule="nonzero"/>
</svg>
