<svg width="59.515625" height="72.000000" viewBox="0 0 59.5156 72" fill="none" xmlns="http://www.w3.org/2000/svg" xmlns:xlink="http://www.w3.org/1999/xlink">
	<desc>
			Created with Pixso.
	</desc>
	<defs/>
	<path id="Vector" d="M24.46 30.78C24.46 33.87 22.41 36.5 19.47 37.61L39.99 37.61C37.09 36.5 35 33.87 35 30.78C35 26.72 38.54 23.44 42.93 23.44C44.93 23.44 46.78 24.13 48.23 25.29L48.23 23.39C48.23 22.47 47.38 21.69 46.38 21.69L46.08 21.69L39.99 16.06L19.52 16.06L13.42 21.69L13.13 21.69C12.13 21.69 11.28 22.43 11.28 23.39L11.28 25.29C12.73 24.09 14.57 23.44 16.57 23.44C20.91 23.44 24.46 26.72 24.46 30.78Z" fill="#FFFFFF" fill-opacity="1.000000" fill-rule="nonzero"/>
	<path id="Vector" d="M35.9 0L23.61 0L23.61 14.67L35.95 14.67L35.95 0L35.9 0ZM33.25 10.43L26.26 10.43L26.26 9.73L33.2 9.73L33.2 10.43L33.25 10.43ZM33.25 4.89L26.26 4.89L26.26 4.19L33.2 4.19L33.2 4.89L33.25 4.89Z" fill="#FFFFFF" fill-opacity="1.000000" fill-rule="nonzero"/>
	<path id="Vector" d="M56.36 27.87C48.88 27.87 50.07 27.87 48.63 27.87C47.18 25.75 45.18 24.83 42.98 24.83C39.44 24.83 36.54 27.5 36.54 30.78C36.54 34.06 39.44 36.73 42.98 36.73C45.18 36.73 47.13 35.81 48.63 33.69C50.07 33.69 49.08 33.69 53.22 33.69L53.22 43.8L51.02 45.78L51.42 48.55L49.27 50.49L49.67 53.26L47.48 55.33L48.13 58.06L45.73 59.95L46.13 62.72L44.23 64.43L43.98 64.66L44.03 64.89L44.43 67.7L47.93 69.23L59.51 46.29L59.51 30.78C59.51 29.16 58.06 27.87 56.36 27.87ZM42.98 33.18C41.54 33.18 40.39 32.12 40.39 30.78C40.39 29.44 41.54 28.38 42.98 28.38C44.43 28.38 45.58 29.44 45.58 30.78C45.58 32.12 44.38 33.18 42.98 33.18Z" fill="#FFFFFF" fill-opacity="1.000000" fill-rule="nonzero"/>
	<path id="Vector" d="M13.38 62.72L13.78 59.95L11.38 58.06L12.03 55.33L9.83 53.26L10.23 50.49L8.08 48.55L8.48 45.78L6.29 43.8L6.29 33.69C12.08 33.69 4.49 33.69 10.88 33.69C12.38 35.86 14.38 36.73 16.52 36.73C20.07 36.73 22.96 34.06 22.96 30.78C22.96 27.5 20.07 24.83 16.52 24.83C14.33 24.83 12.33 25.75 10.88 27.87C9.38 27.87 10.78 27.87 3.14 27.87C1.39 27.87 0 29.16 0 30.78L0 46.33L11.58 69.23L15.12 67.7L15.52 64.89L15.57 64.66L15.32 64.43L13.38 62.72ZM16.52 28.38C17.97 28.38 19.12 29.44 19.12 30.78C19.12 32.12 17.97 33.18 16.52 33.18C15.08 33.18 13.93 32.12 13.93 30.78C13.93 29.44 15.08 28.38 16.52 28.38Z" fill="#FFFFFF" fill-opacity="1.000000" fill-rule="nonzero"/>
	<path id="Vector" d="M29.75 45.78C21.92 45.78 15.58 51.64 15.58 58.89C15.58 60.6 15.92 62.21 16.57 63.69C16.72 64.06 16.87 64.38 17.07 64.7C19.37 69.04 24.21 72 29.81 72C35.4 72 40.19 69 42.54 64.7C42.74 64.38 42.89 64.01 43.04 63.69C43.69 62.21 44.04 60.6 44.04 58.89C43.94 51.64 37.59 45.78 29.75 45.78ZM29.75 66.23C25.36 66.23 21.82 62.95 21.82 58.89C21.82 54.83 25.36 51.55 29.75 51.55C34.15 51.55 37.69 54.83 37.69 58.89C37.69 62.95 34.15 66.23 29.75 66.23Z" fill="#FFFFFF" fill-opacity="1.000000" fill-rule="nonzero"/>
</svg>
