<svg width="74.496094" height="55.774658" viewBox="0 0 74.4961 55.7747" fill="none" xmlns="http://www.w3.org/2000/svg" xmlns:xlink="http://www.w3.org/1999/xlink">
	<desc>
			Created with Pixso.
	</desc>
	<defs/>
	<path id="Vector" d="M46.79 27.19L46.79 45.54L57.37 55.77L63.91 55.77L74.49 45.54L74.49 27.19L46.79 27.19Z" fill="#FFFFFF" fill-opacity="1.000000" fill-rule="nonzero"/>
	<path id="Vector" d="M38.47 9.34L0 9.34L0 23.79L38.47 23.79C42.6 23.79 45.92 20.54 45.92 16.59C45.92 12.64 42.6 9.34 38.47 9.34ZM38.47 19.28C36.93 19.28 35.68 18.08 35.68 16.54C35.68 15.01 36.93 13.85 38.47 13.85C40.01 13.85 41.31 15.05 41.31 16.54C41.31 18.03 40.06 19.28 38.47 19.28Z" fill="#FFFFFF" fill-opacity="1.000000" fill-rule="nonzero"/>
	<path id="Vector" d="M8.51 3.53L10.62 4.22L12.69 3.02L11.35 1.3L9.76 2.64L7.02 2.32L6.44 4.92L8.89 5.25L8.51 3.53Z" fill="#FFFFFF" fill-opacity="1.000000" fill-rule="nonzero"/>
	<path id="Vector" d="M20.63 4.36L22.45 0.6L20.39 0L19.23 2.83C19.23 2.83 16.64 3.25 16.59 3.3L17.41 4.36L20.63 4.36Z" fill="#FFFFFF" fill-opacity="1.000000" fill-rule="nonzero"/>
	<path id="Vector" d="M27.99 4.69L29.86 5.06L30.2 2.88L26.83 3.06L25.05 5.57L26.64 6.55L27.99 4.69Z" fill="#FFFFFF" fill-opacity="1.000000" fill-rule="nonzero"/>
	<path id="Vector" d="M39.38 4.41L38.13 2.78L36.64 3.76L35.63 3.3L37.31 1.02L35.49 0.13L33.51 3.43L36.3 5.62L39.38 4.41Z" fill="#FFFFFF" fill-opacity="1.000000" fill-rule="nonzero"/>
	<path id="Vector" d="M43.18 6.41L47.7 3.3L46.3 0.65L44.43 1.44L45.15 2.69L42.22 4.55L43.18 6.41Z" fill="#FFFFFF" fill-opacity="1.000000" fill-rule="nonzero"/>
	<path id="Vector" d="M48.47 10.36L50.15 9.06L50.92 9.66L53.04 8.59L50.63 6.83C50.63 6.83 47.7 9.15 47.65 9.2L48.47 10.36Z" fill="#FFFFFF" fill-opacity="1.000000" fill-rule="nonzero"/>
	<path id="Vector" d="M50.54 17.52L51.93 17.94L52.08 16.17L53.18 15.89L54.48 17.29L56.6 16.4L54.48 13.57L50.54 14.91L50.54 17.52Z" fill="#FFFFFF" fill-opacity="1.000000" fill-rule="nonzero"/>
	<path id="Vector" d="M51.88 22.07C51.88 22.07 52.51 25.37 52.51 25.47L54.34 25.47L54.48 24.07L57.75 23.7L55.68 21.93L51.88 22.07Z" fill="#FFFFFF" fill-opacity="1.000000" fill-rule="nonzero"/>
	<path id="Vector" d="M0.14 43.69L45.25 43.69L45.25 27.28L0.14 27.28L0.14 43.69ZM28.61 40.9L17.79 40.9L28.61 30.44L28.61 40.9ZM42.36 30.16L42.36 40.9L31.25 40.9L42.36 30.16ZM30.29 40.52L30.29 30.07L41.11 30.07L30.29 40.52ZM16.83 40.52L16.83 30.07L27.65 30.07L16.83 40.52ZM3.02 40.8L3.02 30.07L14.13 30.07L3.02 40.8ZM15.14 30.44L15.14 40.9L4.32 40.9L15.14 30.44Z" fill="#FFFFFF" fill-opacity="1.000000" fill-rule="nonzero"/>
</svg>
