<svg width="69.000000" height="61.159912" viewBox="0 0 69 61.1599" fill="none" xmlns="http://www.w3.org/2000/svg" xmlns:xlink="http://www.w3.org/1999/xlink">
	<desc>
			Created with Pixso.
	</desc>
	<defs/>
	<path id="airplane" d="M22.31 61.15L25.08 61.15L31.49 53.96L36.24 53.96C37.03 53.96 37.66 53.32 37.66 52.52C37.66 51.72 37.03 51.08 36.24 51.08L34.02 51.08L40.35 43.97L44.31 43.97C45.1 43.97 45.73 43.33 45.73 42.53C45.73 41.73 45.1 41.09 44.31 41.09L42.8 41.09L48.03 35.25C59.02 35.09 69 33.41 69 30.61C69 27.82 59.02 26.14 48.03 25.9L42.8 20.06L44.31 20.06C45.1 20.06 45.73 19.42 45.73 18.62C45.73 17.82 45.1 17.18 44.31 17.18L40.35 17.18L34.02 10.07L36.24 10.07C37.03 10.07 37.66 9.43 37.66 8.63C37.66 7.83 37.03 7.19 36.24 7.19L31.49 7.19L25.08 0L22.31 0L33.94 26.06C22.23 26.7 10.28 28.06 10.28 28.06L2.37 19.34L0.39 19.58L2.37 29.34L0 30.7L2.37 32.05L0.39 41.73L2.37 41.97L10.2 33.09C10.2 33.09 22.15 34.45 33.86 35.09L22.31 61.15Z" fill="#FFFFFF" fill-opacity="1.000000" fill-rule="nonzero"/>
</svg>
